<svg width="219" height="35" viewBox="0 0 219 35" fill="none" xmlns="http://www.w3.org/2000/svg">
<g clip-path="url(#clip0_1_270)">
<path d="M10.4078 12.4497H0L10.986 34.9999H21.3937L10.4078 12.4497Z" fill="url(#paint0_linear_1_270)"/>
<path d="M31.8016 6.66748H21.3938L33.1507 34.9997H43.5585L31.8016 6.66748Z" fill="url(#paint1_linear_1_270)"/>
<path d="M21.3937 6.66748H31.8015L21.3937 34.9997H10.9859L21.3937 6.66748Z" fill="url(#paint2_linear_1_270)"/>
<path fill-rule="evenodd" clip-rule="evenodd" d="M15.4601 22.8203L10.986 34.9999H21.3938L15.4601 22.8203Z" fill="url(#paint3_linear_1_270)"/>
<path fill-rule="evenodd" clip-rule="evenodd" d="M10.986 34.9999H21.3938L15.4601 22.8203L10.986 34.9999Z" fill="url(#paint4_linear_1_270)"/>
<path d="M44.9076 0.5H55.3154L43.3658 34.9998H32.958L44.9076 0.5Z" fill="url(#paint5_linear_1_270)"/>
<path fill-rule="evenodd" clip-rule="evenodd" d="M37.7807 21.0762L33.0457 34.7466L33.1507 34.9997H43.5585L43.4534 34.7466L37.7807 21.0762Z" fill="url(#paint6_linear_1_270)"/>
<path fill-rule="evenodd" clip-rule="evenodd" d="M43.3657 34.9997L43.4534 34.7466L37.7807 21.0762L33.0457 34.7466L32.958 34.9997H43.3657Z" fill="url(#paint7_linear_1_270)"/>
<path d="M72.4464 15.2882H64.3915V10.7708H86.3267V15.2882H78.2718V34.7264H72.4464V15.2882Z" fill="white"/>
<path d="M96.3046 35.0002C94.2669 35.0002 92.4329 34.6009 90.8028 33.8024C89.1966 32.9811 87.938 31.8517 87.0271 30.4144C86.1161 28.9771 85.6606 27.3458 85.6606 25.5206C85.6606 23.6954 86.1161 22.0642 87.0271 20.6268C87.938 19.1895 89.1966 18.0716 90.8028 17.2731C92.4329 16.4517 94.2669 16.0411 96.3046 16.0411C98.3423 16.0411 100.164 16.4517 101.77 17.2731C103.377 18.0716 104.635 19.1895 105.546 20.6268C106.457 22.0642 106.913 23.6954 106.913 25.5206C106.913 27.3458 106.457 28.9771 105.546 30.4144C104.635 31.8517 103.377 32.9811 101.77 33.8024C100.164 34.6009 98.3423 35.0002 96.3046 35.0002ZM96.3046 30.6197C97.7429 30.6197 98.9176 30.1634 99.8286 29.2508C100.764 28.3154 101.231 27.072 101.231 25.5206C101.231 23.9692 100.764 22.7372 99.8286 21.8246C98.9176 20.8892 97.7429 20.4215 96.3046 20.4215C94.8662 20.4215 93.6795 20.8892 92.7446 21.8246C91.8096 22.7372 91.3422 23.9692 91.3422 25.5206C91.3422 27.072 91.8096 28.3154 92.7446 29.2508C93.6795 30.1634 94.8662 30.6197 96.3046 30.6197Z" fill="white"/>
<path d="M118.969 27.5055L116.272 30.0379V34.7264H110.662V9.3335H116.272V23.7068L124.471 16.3148H131.159L123.104 24.1175L131.878 34.7264H125.082L118.969 27.5055Z" fill="white"/>
<path d="M146.019 16.0411C148.416 16.0411 150.346 16.7255 151.809 18.0944C153.295 19.4633 154.038 21.4938 154.038 24.1859V34.7264H148.428V25.0073C148.428 23.5471 148.093 22.4634 147.422 21.7562C146.75 21.0261 145.779 20.6611 144.509 20.6611C143.094 20.6611 141.968 21.0831 141.129 21.9273C140.29 22.7486 139.87 23.9806 139.87 25.6233V34.7264H134.26V16.3148H139.618V18.4708C140.362 17.6951 141.285 17.1019 142.387 16.6913C143.49 16.2578 144.701 16.0411 146.019 16.0411Z" fill="white"/>
<path d="M178.284 25.5891C178.284 25.6575 178.248 26.1366 178.176 27.0264H163.541C163.805 28.1671 164.428 29.0683 165.411 29.7299C166.394 30.3916 167.616 30.7224 169.079 30.7224C170.085 30.7224 170.972 30.5855 171.74 30.3117C172.531 30.0151 173.262 29.5588 173.933 28.9428L176.918 32.0228C175.096 34.0077 172.435 35.0002 168.935 35.0002C166.753 35.0002 164.823 34.6009 163.145 33.8024C161.467 32.9811 160.173 31.8517 159.262 30.4144C158.351 28.9771 157.895 27.3458 157.895 25.5206C157.895 23.7182 158.339 22.0984 159.226 20.6611C160.137 19.2009 161.371 18.0716 162.93 17.2731C164.512 16.4517 166.274 16.0411 168.216 16.0411C170.109 16.0411 171.824 16.4289 173.358 17.2046C174.892 17.9803 176.091 19.0982 176.954 20.5584C177.841 21.9957 178.284 23.6726 178.284 25.5891ZM168.252 20.0793C166.981 20.0793 165.914 20.4215 165.051 21.1059C164.188 21.7904 163.661 22.7258 163.469 23.9122H172.998C172.806 22.7486 172.279 21.8246 171.416 21.1402C170.553 20.4329 169.498 20.0793 168.252 20.0793Z" fill="white"/>
<path d="M187.377 18.7446C188.048 17.8548 188.947 17.1818 190.074 16.7255C191.224 16.2692 192.543 16.0411 194.029 16.0411V20.9691C193.406 20.9234 192.986 20.9006 192.771 20.9006C191.165 20.9006 189.906 21.3341 188.995 22.2011C188.084 23.0452 187.629 24.3228 187.629 26.0339V34.7264H182.019V16.3148H187.377V18.7446Z" fill="white"/>
<path d="M203.944 35.0002C202.338 35.0002 200.767 34.8176 199.233 34.4526C197.699 34.0648 196.476 33.5856 195.565 33.0153L197.435 29.1824C198.298 29.7071 199.341 30.1406 200.564 30.4828C201.786 30.8022 202.985 30.9619 204.159 30.9619C206.533 30.9619 207.719 30.403 207.719 29.2851C207.719 28.7603 207.396 28.3839 206.749 28.1557C206.101 27.9276 205.106 27.7336 203.764 27.5739C202.182 27.3458 200.875 27.0834 199.844 26.7868C198.813 26.4902 197.915 25.9655 197.147 25.2126C196.404 24.4597 196.033 23.3874 196.033 21.9957C196.033 20.8322 196.38 19.8055 197.075 18.9157C197.795 18.0031 198.825 17.2959 200.168 16.7939C201.534 16.292 203.141 16.0411 204.987 16.0411C206.353 16.0411 207.707 16.1893 209.05 16.4859C210.416 16.7597 211.543 17.1476 212.43 17.6495L210.56 21.4482C208.858 20.5356 207 20.0793 204.987 20.0793C203.788 20.0793 202.889 20.239 202.29 20.5584C201.69 20.8778 201.391 21.2885 201.391 21.7904C201.391 22.3608 201.714 22.76 202.361 22.9882C203.009 23.2163 204.04 23.4331 205.454 23.6384C207.036 23.8893 208.331 24.1631 209.338 24.4597C210.344 24.7335 211.219 25.2468 211.963 25.9997C212.706 26.7526 213.077 27.8021 213.077 29.1482C213.077 30.2889 212.718 31.3042 211.999 32.1939C211.279 33.0837 210.225 33.7796 208.834 34.2815C207.468 34.7606 205.838 35.0002 203.944 35.0002Z" fill="white"/>
</g>
<defs>
<linearGradient id="paint0_linear_1_270" x1="10.6969" y1="12.4497" x2="10.6969" y2="34.9999" gradientUnits="userSpaceOnUse">
<stop stop-color="#6275F6"/>
<stop offset="1" stop-color="#82E8FE"/>
</linearGradient>
<linearGradient id="paint1_linear_1_270" x1="32.4761" y1="6.66748" x2="32.4761" y2="34.9997" gradientUnits="userSpaceOnUse">
<stop stop-color="#C31A62"/>
<stop offset="1" stop-color="#EF0820"/>
</linearGradient>
<linearGradient id="paint2_linear_1_270" x1="21.3937" y1="6.66748" x2="21.3937" y2="34.9997" gradientUnits="userSpaceOnUse">
<stop stop-color="#8C31A2"/>
<stop offset="1" stop-color="#BF1B66"/>
</linearGradient>
<linearGradient id="paint3_linear_1_270" x1="16.1899" y1="22.8203" x2="16.1899" y2="34.9999" gradientUnits="userSpaceOnUse">
<stop stop-color="#6270F4"/>
<stop offset="1" stop-color="#84EBFD"/>
</linearGradient>
<linearGradient id="paint4_linear_1_270" x1="16.1899" y1="22.8203" x2="16.1899" y2="34.9999" gradientUnits="userSpaceOnUse">
<stop stop-color="#6270F4"/>
<stop offset="1" stop-color="#84EBFD"/>
</linearGradient>
<linearGradient id="paint5_linear_1_270" x1="44.1367" y1="0.5" x2="44.1367" y2="34.9998" gradientUnits="userSpaceOnUse">
<stop stop-color="#F8E64C"/>
<stop offset="1" stop-color="#EB3E49"/>
</linearGradient>
<linearGradient id="paint6_linear_1_270" x1="38.2582" y1="21.0762" x2="38.2582" y2="34.9997" gradientUnits="userSpaceOnUse">
<stop stop-color="#FF344C"/>
<stop offset="1" stop-color="#FF6F5B"/>
</linearGradient>
<linearGradient id="paint7_linear_1_270" x1="38.2582" y1="21.0762" x2="38.2582" y2="34.9997" gradientUnits="userSpaceOnUse">
<stop stop-color="#FF344C"/>
<stop offset="1" stop-color="#FF6F5B"/>
</linearGradient>
<clipPath id="clip0_1_270">
<rect width="219" height="35" fill="white"/>
</clipPath>
</defs>
</svg>
