<svg width="1920" height="600" viewBox="0 0 1920 600" fill="none" xmlns="http://www.w3.org/2000/svg">
<mask id="mask0_45_221" style="mask-type:alpha" maskUnits="userSpaceOnUse" x="0" y="0" width="1920" height="600">
<rect width="1920" height="600" fill="#D9D9D9"/>
</mask>
<g mask="url(#mask0_45_221)">
<path d="M2097.07 721.12C2237.95 775.656 2242.07 883.554 2226.53 930.686L2032.89 915.333L-20.3733 915.334L-260 264.423C-249.898 215.831 -192.377 124.452 -43.1055 147.661C143.484 176.672 156.945 106.83 199.583 58.7964C242.221 10.7625 301.196 -32.8941 444.595 52.747C587.995 138.388 735.996 193.784 879.971 120.44C995.151 61.764 1087.51 76.3698 1120.54 85.2198C1153.57 94.0697 1240.86 127.602 1311.27 236.007C1399.29 371.513 1555.16 397.539 1722.17 395.071C1889.18 392.604 1918.42 459.899 1931.33 522.817C1944.24 585.734 1920.98 652.95 2097.07 721.12Z" fill="#1D1534"/>
</g>
</svg>
