<svg width="1920" height="683" viewBox="0 0 1920 683" fill="none" xmlns="http://www.w3.org/2000/svg">
<mask id="mask0_48_225" style="mask-type:alpha" maskUnits="userSpaceOnUse" x="0" y="0" width="1920" height="683">
<rect width="1920" height="683" fill="#D9D9D9"/>
</mask>
<g mask="url(#mask0_48_225)">
<path d="M2097.07 725.12C2237.95 779.656 2242.07 887.554 2226.53 934.686L2032.89 919.333L-20.3733 919.334L-260 268.423C-249.898 219.831 -192.377 128.452 -43.1055 151.661C143.484 180.672 156.945 110.83 199.583 62.7964C242.221 14.7625 301.196 -28.8941 444.595 56.747C587.995 142.388 735.996 197.784 879.971 124.44C995.151 65.764 1087.51 80.3698 1120.54 89.2198C1153.57 98.0697 1240.86 131.602 1311.27 240.007C1399.29 375.513 1555.16 401.539 1722.17 399.071C1889.18 396.604 1918.42 463.899 1931.33 526.817C1944.24 589.734 1920.98 656.95 2097.07 725.12Z" fill="#1D1534"/>
</g>
</svg>
