<svg width="1318" height="1374" viewBox="0 0 1318 1374" fill="none" xmlns="http://www.w3.org/2000/svg">
<mask id="mask0_100_92" style="mask-type:alpha" maskUnits="userSpaceOnUse" x="0" y="0" width="1318" height="1374">
<rect width="1318" height="1374" fill="#D9D9D9"/>
</mask>
<g mask="url(#mask0_100_92)">
<path opacity="0.02" d="M93.1525 208.947C-28.8098 119.807 -4.86799 14.5181 22.3482 -26.9838L396.42 -674.896L2625.78 612.225L2251.71 1260.14C2229.37 1304.46 2150.16 1377.84 2011.98 1316.78C1839.26 1240.47 1808.18 1304.45 1754.56 1339.81C1700.95 1375.17 1632.68 1402.08 1516.33 1282.24C1399.99 1162.4 1271.37 1070.59 1113.31 1104.17C986.872 1131.03 901.436 1093.02 871.824 1075.92C842.211 1058.83 766.573 1003.84 726.618 880.91C676.674 727.242 532.851 661.76 370.895 620.919C208.939 580.077 198.106 507.506 201.922 443.391C205.738 379.276 245.605 320.372 93.1525 208.947Z" fill="black"/>
<path d="M224.097 70.872C138.084 -28.7071 179.061 -113.363 210.301 -143.244L654.885 -619.701L2294.29 910.041L1849.71 1386.5C1822.06 1419.73 1740.44 1466.46 1635.15 1387.54C1503.54 1288.88 1464.62 1337.08 1412.18 1356.57C1359.73 1376.06 1296.52 1385.5 1221.3 1260.97C1146.07 1136.44 1054.93 1033.28 914.21 1030.77C801.633 1028.76 736.587 979.738 714.81 959.418C693.034 939.099 639.631 877.596 629.845 765.428C617.611 625.218 508.403 541.427 378.971 474.989C249.54 408.552 254.587 344.838 270.405 291.175C286.223 237.513 331.614 195.346 224.097 70.872Z" fill="black"/>
<path d="M224.097 70.872C138.084 -28.7071 179.061 -113.363 210.301 -143.244L654.885 -619.701L2294.29 910.041L1849.71 1386.5C1822.06 1419.73 1740.44 1466.46 1635.15 1387.54C1503.54 1288.88 1464.62 1337.08 1412.18 1356.57C1359.73 1376.06 1296.52 1385.5 1221.3 1260.97C1146.07 1136.44 1054.93 1033.28 914.21 1030.77C801.633 1028.76 736.587 979.738 714.81 959.418C693.034 939.099 639.631 877.596 629.845 765.428C617.611 625.218 508.403 541.427 378.971 474.989C249.54 408.552 254.587 344.838 270.405 291.175C286.223 237.513 331.614 195.346 224.097 70.872Z" fill="url(#paint0_linear_100_92)"/>
<path d="M343.178 -663.381C309.033 -790.458 382.75 -848.867 423.877 -862.187L1031.43 -1097.86L1842.36 992.63L1234.81 1228.31C1195.46 1246.21 1101.63 1252.79 1041.15 1135.93C965.549 989.852 909.534 1016.32 853.836 1011.06C798.138 1005.81 737.112 986.815 723.533 841.963C709.955 697.111 672.75 564.585 547.127 501.121C446.63 450.35 409.378 377.916 398.606 350.148C387.835 322.38 366.496 243.773 406.467 138.512C456.431 6.93645 394.534 -116.012 306.88 -232.128C219.226 -348.245 251.48 -403.423 289.062 -444.865C326.645 -486.307 385.858 -504.535 343.178 -663.381Z" fill="black"/>
<path d="M343.178 -663.381C309.033 -790.458 382.75 -848.867 423.877 -862.187L1031.43 -1097.86L1842.36 992.63L1234.81 1228.31C1195.46 1246.21 1101.63 1252.79 1041.15 1135.93C965.549 989.852 909.534 1016.32 853.836 1011.06C798.138 1005.81 737.112 986.815 723.533 841.963C709.955 697.111 672.75 564.585 547.127 501.121C446.63 450.35 409.378 377.916 398.606 350.148C387.835 322.38 366.496 243.773 406.467 138.512C456.431 6.93645 394.534 -116.012 306.88 -232.128C219.226 -348.245 251.48 -403.423 289.062 -444.865C326.645 -486.307 385.858 -504.535 343.178 -663.381Z" fill="url(#paint1_linear_100_92)"/>
<path d="M581.002 -93.8513C527.822 -214.21 591.738 -283.207 630.343 -302.661L1194.7 -628.493L2315.84 1313.37L2151.48 1489.2C2115.33 1512.91 2023.62 1533.76 1945.97 1427.53C1848.92 1294.74 1797.61 1329.46 1741.76 1332.79C1685.92 1336.11 1296.5 1426.83 1187.13 1325.6C1080.36 1226.78 1094.52 1069.26 960.666 1025.75C853.585 990.952 805.693 925.068 790.801 899.274C775.909 873.481 742.797 799.062 766.198 688.927C795.449 551.257 715.476 439.223 611.092 337.879C506.709 236.535 530.144 177.074 560.946 130.371C591.748 83.6684 647.476 56.5976 581.002 -93.8513Z" fill="black"/>
<path d="M581.002 -93.8513C527.822 -214.21 591.738 -283.207 630.343 -302.661L1194.7 -628.493L2315.84 1313.37L2151.48 1489.2C2115.33 1512.91 2023.62 1533.76 1945.97 1427.53C1848.92 1294.74 1797.61 1329.46 1741.76 1332.79C1685.92 1336.11 1296.5 1426.83 1187.13 1325.6C1080.36 1226.78 1094.52 1069.26 960.666 1025.75C853.585 990.952 805.693 925.068 790.801 899.274C775.909 873.481 742.797 799.062 766.198 688.927C795.449 551.257 715.476 439.223 611.092 337.879C506.709 236.535 530.144 177.074 560.946 130.371C591.748 83.6684 647.476 56.5976 581.002 -93.8513Z" fill="url(#paint2_linear_100_92)"/>
</g>
<defs>
<linearGradient id="paint0_linear_100_92" x1="-593.042" y1="-411.53" x2="1398.03" y2="1193.73" gradientUnits="userSpaceOnUse">
<stop stop-color="#ED374D"/>
<stop offset="0.505208" stop-color="#FA793F"/>
<stop offset="1" stop-color="#F7F651"/>
</linearGradient>
<linearGradient id="paint1_linear_100_92" x1="460.718" y1="-761.302" x2="1135.14" y2="1748.95" gradientUnits="userSpaceOnUse">
<stop stop-color="#ED374D"/>
<stop offset="0.505208" stop-color="#FA793F"/>
<stop offset="1" stop-color="#F7F651"/>
</linearGradient>
<linearGradient id="paint2_linear_100_92" x1="1145.13" y1="-600.042" x2="1431.27" y2="2118.26" gradientUnits="userSpaceOnUse">
<stop stop-color="#ED374D"/>
<stop offset="0.505208" stop-color="#FA793F"/>
<stop offset="1" stop-color="#F7F651"/>
</linearGradient>
</defs>
</svg>
