<svg width="1561" height="1374" viewBox="0 0 1561 1374" fill="none" xmlns="http://www.w3.org/2000/svg">
<mask id="mask0_18_55" style="mask-type:alpha" maskUnits="userSpaceOnUse" x="0" y="0" width="1561" height="1374">
<rect width="1561" height="1374" fill="#D9D9D9"/>
</mask>
<g mask="url(#mask0_18_55)">
<path opacity="0.02" d="M336.152 208.947C214.19 119.807 238.132 14.5181 265.348 -26.9839L639.42 -674.896L2868.78 612.225L2494.71 1260.14C2472.37 1304.46 2393.16 1377.84 2254.98 1316.78C2082.26 1240.47 2051.18 1304.45 1997.56 1339.81C1943.95 1375.17 1875.68 1402.08 1759.33 1282.24C1642.99 1162.4 1514.37 1070.59 1356.31 1104.17C1229.87 1131.03 1144.44 1093.02 1114.82 1075.92C1085.21 1058.83 1009.57 1003.84 969.618 880.91C919.674 727.242 775.851 661.76 613.895 620.918C451.939 580.077 441.106 507.506 444.922 443.391C448.738 379.276 488.605 320.372 336.152 208.947Z" fill="black"/>
<path d="M467.097 70.872C381.084 -28.7071 422.061 -113.363 453.301 -143.244L897.885 -619.701L2537.29 910.041L2092.71 1386.5C2065.06 1419.73 1983.44 1466.46 1878.15 1387.54C1746.54 1288.88 1707.62 1337.08 1655.18 1356.57C1602.73 1376.06 1539.52 1385.5 1464.3 1260.97C1389.07 1136.44 1297.93 1033.28 1157.21 1030.77C1044.63 1028.76 979.587 979.738 957.81 959.418C936.034 939.099 882.631 877.596 872.845 765.428C860.611 625.218 751.403 541.427 621.971 474.989C492.54 408.551 497.587 344.838 513.405 291.175C529.223 237.513 574.614 195.346 467.097 70.872Z" fill="black"/>
<path d="M467.097 70.872C381.084 -28.7071 422.061 -113.363 453.301 -143.244L897.885 -619.701L2537.29 910.041L2092.71 1386.5C2065.06 1419.73 1983.44 1466.46 1878.15 1387.54C1746.54 1288.88 1707.62 1337.08 1655.18 1356.57C1602.73 1376.06 1539.52 1385.5 1464.3 1260.97C1389.07 1136.44 1297.93 1033.28 1157.21 1030.77C1044.63 1028.76 979.587 979.738 957.81 959.418C936.034 939.099 882.631 877.596 872.845 765.428C860.611 625.218 751.403 541.427 621.971 474.989C492.54 408.551 497.587 344.838 513.405 291.175C529.223 237.513 574.614 195.346 467.097 70.872Z" fill="url(#paint0_linear_18_55)"/>
<path d="M586.178 -663.381C552.033 -790.458 625.75 -848.867 666.877 -862.187L1274.43 -1097.86L2085.36 992.63L1477.81 1228.31C1438.46 1246.21 1344.63 1252.79 1284.15 1135.93C1208.55 989.852 1152.53 1016.32 1096.84 1011.06C1041.14 1005.81 980.112 986.815 966.533 841.963C952.955 697.111 915.75 564.585 790.127 501.121C689.63 450.35 652.378 377.916 641.606 350.148C630.835 322.38 609.496 243.773 649.467 138.512C699.431 6.93645 637.534 -116.012 549.88 -232.128C462.226 -348.245 494.48 -403.423 532.062 -444.865C569.645 -486.307 628.858 -504.535 586.178 -663.381Z" fill="black"/>
<path d="M586.178 -663.381C552.033 -790.458 625.75 -848.867 666.877 -862.187L1274.43 -1097.86L2085.36 992.63L1477.81 1228.31C1438.46 1246.21 1344.63 1252.79 1284.15 1135.93C1208.55 989.852 1152.53 1016.32 1096.84 1011.06C1041.14 1005.81 980.112 986.815 966.533 841.963C952.955 697.111 915.75 564.585 790.127 501.121C689.63 450.35 652.378 377.916 641.606 350.148C630.835 322.38 609.496 243.773 649.467 138.512C699.431 6.93645 637.534 -116.012 549.88 -232.128C462.226 -348.245 494.48 -403.423 532.062 -444.865C569.645 -486.307 628.858 -504.535 586.178 -663.381Z" fill="url(#paint1_linear_18_55)"/>
<path d="M824.002 -93.8514C770.822 -214.211 834.738 -283.207 873.343 -302.661L1437.7 -628.493L2558.84 1313.37L2394.48 1489.2C2358.33 1512.91 2266.62 1533.76 2188.97 1427.53C2091.92 1294.74 2040.61 1329.46 1984.76 1332.79C1928.92 1336.11 1539.5 1426.83 1430.13 1325.6C1323.36 1226.78 1337.52 1069.26 1203.67 1025.75C1096.59 990.952 1048.69 925.068 1033.8 899.274C1018.91 873.481 985.797 799.062 1009.2 688.927C1038.45 551.257 958.476 439.223 854.092 337.879C749.709 236.535 773.144 177.074 803.946 130.371C834.748 83.6683 890.476 56.5976 824.002 -93.8514Z" fill="black"/>
<path d="M824.002 -93.8514C770.822 -214.211 834.738 -283.207 873.343 -302.661L1437.7 -628.493L2558.84 1313.37L2394.48 1489.2C2358.33 1512.91 2266.62 1533.76 2188.97 1427.53C2091.92 1294.74 2040.61 1329.46 1984.76 1332.79C1928.92 1336.11 1539.5 1426.83 1430.13 1325.6C1323.36 1226.78 1337.52 1069.26 1203.67 1025.75C1096.59 990.952 1048.69 925.068 1033.8 899.274C1018.91 873.481 985.797 799.062 1009.2 688.927C1038.45 551.257 958.476 439.223 854.092 337.879C749.709 236.535 773.144 177.074 803.946 130.371C834.748 83.6683 890.476 56.5976 824.002 -93.8514Z" fill="url(#paint2_linear_18_55)"/>
</g>
<defs>
<linearGradient id="paint0_linear_18_55" x1="-350.042" y1="-411.53" x2="1641.03" y2="1193.73" gradientUnits="userSpaceOnUse">
<stop stop-color="#ED374D"/>
<stop offset="0.505208" stop-color="#FA793F"/>
<stop offset="1" stop-color="#F7F651"/>
</linearGradient>
<linearGradient id="paint1_linear_18_55" x1="703.718" y1="-761.302" x2="1378.14" y2="1748.95" gradientUnits="userSpaceOnUse">
<stop stop-color="#ED374D"/>
<stop offset="0.505208" stop-color="#FA793F"/>
<stop offset="1" stop-color="#F7F651"/>
</linearGradient>
<linearGradient id="paint2_linear_18_55" x1="1388.13" y1="-600.042" x2="1674.27" y2="2118.26" gradientUnits="userSpaceOnUse">
<stop stop-color="#ED374D"/>
<stop offset="0.505208" stop-color="#FA793F"/>
<stop offset="1" stop-color="#F7F651"/>
</linearGradient>
</defs>
</svg>
