<svg width="1137" height="1373" viewBox="0 0 1137 1373" fill="none" xmlns="http://www.w3.org/2000/svg">
<mask id="mask0_30_18" style="mask-type:alpha" maskUnits="userSpaceOnUse" x="0" y="0" width="1137" height="1373">
<rect width="1137" height="1373" fill="#D9D9D9"/>
</mask>
<g mask="url(#mask0_30_18)">
<mask id="mask1_30_18" style="mask-type:alpha" maskUnits="userSpaceOnUse" x="-424" y="0" width="1561" height="1374">
<rect x="-424" width="1561" height="1374" fill="#D9D9D9"/>
</mask>
<g mask="url(#mask1_30_18)">
<path opacity="0.02" d="M-87.8475 208.947C-209.81 119.807 -185.868 14.5181 -158.652 -26.9839L215.42 -674.896L2444.78 612.225L2070.71 1260.14C2048.37 1304.46 1969.16 1377.84 1830.98 1316.78C1658.26 1240.47 1627.18 1304.45 1573.56 1339.81C1519.95 1375.17 1451.68 1402.08 1335.33 1282.24C1218.99 1162.4 1090.37 1070.59 932.314 1104.17C805.872 1131.03 720.436 1093.02 690.824 1075.92C661.211 1058.83 585.573 1003.84 545.618 880.91C495.674 727.242 351.851 661.76 189.895 620.918C27.9385 580.077 17.1064 507.506 20.922 443.391C24.7375 379.276 64.6053 320.372 -87.8475 208.947Z" fill="black"/>
<path d="M43.0972 70.872C-42.9165 -28.7071 -1.93948 -113.363 29.3007 -143.244L473.885 -619.701L2113.29 910.041L1668.71 1386.5C1641.06 1419.73 1559.44 1466.46 1454.15 1387.54C1322.54 1288.88 1283.62 1337.08 1231.18 1356.57C1178.73 1376.06 1115.52 1385.5 1040.3 1260.97C965.071 1136.44 873.931 1033.28 733.21 1030.77C620.633 1028.76 555.587 979.738 533.81 959.418C512.034 939.099 458.631 877.596 448.845 765.428C436.611 625.218 327.403 541.427 197.971 474.989C68.5402 408.551 73.5868 344.838 89.4048 291.175C105.223 237.513 150.614 195.346 43.0972 70.872Z" fill="black"/>
<path d="M43.0972 70.872C-42.9165 -28.7071 -1.93948 -113.363 29.3007 -143.244L473.885 -619.701L2113.29 910.041L1668.71 1386.5C1641.06 1419.73 1559.44 1466.46 1454.15 1387.54C1322.54 1288.88 1283.62 1337.08 1231.18 1356.57C1178.73 1376.06 1115.52 1385.5 1040.3 1260.97C965.071 1136.44 873.931 1033.28 733.21 1030.77C620.633 1028.76 555.587 979.738 533.81 959.418C512.034 939.099 458.631 877.596 448.845 765.428C436.611 625.218 327.403 541.427 197.971 474.989C68.5402 408.551 73.5868 344.838 89.4048 291.175C105.223 237.513 150.614 195.346 43.0972 70.872Z" fill="url(#paint0_linear_30_18)"/>
<path d="M162.178 -663.381C128.033 -790.458 201.75 -848.867 242.877 -862.187L850.431 -1097.86L1661.36 992.63L1053.81 1228.31C1014.46 1246.21 920.634 1252.79 860.152 1135.93C784.549 989.852 728.534 1016.32 672.836 1011.06C617.138 1005.81 556.112 986.815 542.533 841.963C528.955 697.111 491.75 564.585 366.127 501.121C265.63 450.35 228.378 377.916 217.606 350.148C206.835 322.38 185.496 243.773 225.467 138.512C275.431 6.93645 213.534 -116.012 125.88 -232.128C38.2256 -348.245 70.48 -403.423 108.062 -444.865C145.645 -486.307 204.858 -504.535 162.178 -663.381Z" fill="black"/>
<path d="M162.178 -663.381C128.033 -790.458 201.75 -848.867 242.877 -862.187L850.431 -1097.86L1661.36 992.63L1053.81 1228.31C1014.46 1246.21 920.634 1252.79 860.152 1135.93C784.549 989.852 728.534 1016.32 672.836 1011.06C617.138 1005.81 556.112 986.815 542.533 841.963C528.955 697.111 491.75 564.585 366.127 501.121C265.63 450.35 228.378 377.916 217.606 350.148C206.835 322.38 185.496 243.773 225.467 138.512C275.431 6.93645 213.534 -116.012 125.88 -232.128C38.2256 -348.245 70.48 -403.423 108.062 -444.865C145.645 -486.307 204.858 -504.535 162.178 -663.381Z" fill="url(#paint1_linear_30_18)"/>
<path d="M400.002 -93.8514C346.822 -214.211 410.738 -283.207 449.343 -302.661L1013.7 -628.493L2134.84 1313.37L1970.48 1489.2C1934.33 1512.91 1842.62 1533.76 1764.97 1427.53C1667.92 1294.74 1616.61 1329.46 1560.76 1332.79C1504.92 1336.11 1115.5 1426.83 1006.13 1325.6C899.358 1226.78 913.517 1069.26 779.666 1025.75C672.585 990.952 624.693 925.068 609.801 899.274C594.909 873.481 561.797 799.062 585.198 688.927C614.449 551.257 534.476 439.223 430.092 337.879C325.709 236.535 349.144 177.074 379.946 130.371C410.748 83.6683 466.476 56.5976 400.002 -93.8514Z" fill="black"/>
<path d="M400.002 -93.8514C346.822 -214.211 410.738 -283.207 449.343 -302.661L1013.7 -628.493L2134.84 1313.37L1970.48 1489.2C1934.33 1512.91 1842.62 1533.76 1764.97 1427.53C1667.92 1294.74 1616.61 1329.46 1560.76 1332.79C1504.92 1336.11 1115.5 1426.83 1006.13 1325.6C899.358 1226.78 913.517 1069.26 779.666 1025.75C672.585 990.952 624.693 925.068 609.801 899.274C594.909 873.481 561.797 799.062 585.198 688.927C614.449 551.257 534.476 439.223 430.092 337.879C325.709 236.535 349.144 177.074 379.946 130.371C410.748 83.6683 466.476 56.5976 400.002 -93.8514Z" fill="url(#paint2_linear_30_18)"/>
</g>
</g>
<defs>
<linearGradient id="paint0_linear_30_18" x1="-774.042" y1="-411.53" x2="1217.03" y2="1193.73" gradientUnits="userSpaceOnUse">
<stop stop-color="#ED374D"/>
<stop offset="0.505208" stop-color="#FA793F"/>
<stop offset="1" stop-color="#F7F651"/>
</linearGradient>
<linearGradient id="paint1_linear_30_18" x1="279.718" y1="-761.302" x2="954.143" y2="1748.95" gradientUnits="userSpaceOnUse">
<stop stop-color="#ED374D"/>
<stop offset="0.505208" stop-color="#FA793F"/>
<stop offset="1" stop-color="#F7F651"/>
</linearGradient>
<linearGradient id="paint2_linear_30_18" x1="964.133" y1="-600.042" x2="1250.27" y2="2118.26" gradientUnits="userSpaceOnUse">
<stop stop-color="#ED374D"/>
<stop offset="0.505208" stop-color="#FA793F"/>
<stop offset="1" stop-color="#F7F651"/>
</linearGradient>
</defs>
</svg>
