<svg width="2003" height="1708" viewBox="0 0 2003 1708" fill="none" xmlns="http://www.w3.org/2000/svg">
<path d="M139.611 1495.04C22.7623 1485.49 -2.06365 1424.72 0.129454 1395.53L0.129454 0L2002.87 0V1395.53C2005.06 1424.72 1980.24 1485.49 1863.39 1495.04C1717.33 1506.98 1721.28 1548.78 1698.91 1582.61C1676.54 1616.45 1641.01 1650.28 1516 1623.41C1391 1596.55 1268.62 1587.59 1175.19 1651.28C1100.45 1702.23 1028.1 1708 1001.5 1708C974.898 1708 902.547 1702.23 827.806 1651.28C734.38 1587.59 612.005 1596.55 486.998 1623.41C361.991 1650.28 326.463 1616.45 304.093 1582.61C281.724 1548.78 285.671 1506.98 139.611 1495.04Z" fill="#1D1534"/>
<path d="M139.611 1495.04C22.7623 1485.49 -2.06365 1424.72 0.129454 1395.53L0.129454 0L2002.87 0V1395.53C2005.06 1424.72 1980.24 1485.49 1863.39 1495.04C1717.33 1506.98 1721.28 1548.78 1698.91 1582.61C1676.54 1616.45 1641.01 1650.28 1516 1623.41C1391 1596.55 1268.62 1587.59 1175.19 1651.28C1100.45 1702.23 1028.1 1708 1001.5 1708C974.898 1708 902.547 1702.23 827.806 1651.28C734.38 1587.59 612.005 1596.55 486.998 1623.41C361.991 1650.28 326.463 1616.45 304.093 1582.61C281.724 1548.78 285.671 1506.98 139.611 1495.04Z" fill="url(#paint0_linear_79_11)"/>
<defs>
<linearGradient id="paint0_linear_79_11" x1="-5.69685e-05" y1="68.1518" x2="2623.98" y2="572.961" gradientUnits="userSpaceOnUse">
<stop stop-color="#ED374D"/>
<stop offset="0.505208" stop-color="#FA793F"/>
<stop offset="1" stop-color="#F7F651"/>
</linearGradient>
</defs>
</svg>
