<svg width="1920" height="1629" viewBox="0 0 1920 1629" fill="none" xmlns="http://www.w3.org/2000/svg">
<mask id="mask0_87_85" style="mask-type:alpha" maskUnits="userSpaceOnUse" x="0" y="0" width="1920" height="1629">
<mask id="mask1_87_85" style="mask-type:alpha" maskUnits="userSpaceOnUse" x="0" y="0" width="1920" height="1629">
<rect width="1920" height="1629" fill="#D9D9D9"/>
</mask>
<g mask="url(#mask1_87_85)">
<path d="M98.6108 1416.04C-18.2377 1406.49 -43.0636 1345.72 -40.8705 1316.53L-40.8705 -79L1961.87 -79V1316.53C1964.06 1345.72 1939.24 1406.49 1822.39 1416.04C1676.33 1427.98 1680.28 1469.78 1657.91 1503.61C1635.54 1537.45 1600.01 1571.28 1475 1544.41C1350 1517.55 1227.62 1508.59 1134.19 1572.28C1059.45 1623.23 987.102 1629 960.5 1629C933.898 1629 861.547 1623.23 786.806 1572.28C693.38 1508.59 571.005 1517.55 445.998 1544.41C320.991 1571.28 285.463 1537.45 263.093 1503.61C240.724 1469.78 244.671 1427.98 98.6108 1416.04Z" fill="#1D1534"/>
<path d="M98.6108 1416.04C-18.2377 1406.49 -43.0636 1345.72 -40.8705 1316.53L-40.8705 -79L1961.87 -79V1316.53C1964.06 1345.72 1939.24 1406.49 1822.39 1416.04C1676.33 1427.98 1680.28 1469.78 1657.91 1503.61C1635.54 1537.45 1600.01 1571.28 1475 1544.41C1350 1517.55 1227.62 1508.59 1134.19 1572.28C1059.45 1623.23 987.102 1629 960.5 1629C933.898 1629 861.547 1623.23 786.806 1572.28C693.38 1508.59 571.005 1517.55 445.998 1544.41C320.991 1571.28 285.463 1537.45 263.093 1503.61C240.724 1469.78 244.671 1427.98 98.6108 1416.04Z" fill="url(#paint0_linear_87_85)"/>
</g>
</mask>
<g mask="url(#mask0_87_85)">
<path d="M-41.8711 -71.5C-44.0642 -42.3095 -19.1088 18.4886 97.7397 28.0419C221.1 38.1276 237.456 69.5088 253.037 99.4034C255.905 104.904 258.746 110.355 262.222 115.614C284.592 149.448 320.12 183.282 445.127 156.414C570.134 129.545 692.509 120.589 785.935 184.278C860.676 235.228 933.027 241 959.629 241C986.231 241 1058.58 235.228 1133.32 184.278C1226.75 120.589 1349.12 129.545 1474.13 156.414C1599.14 183.282 1634.67 149.448 1657.04 115.614C1660.51 110.355 1663.35 104.904 1666.22 99.4034C1681.8 69.5088 1698.16 38.1276 1821.52 28.0419C1938.37 18.4886 1963.19 -42.2807 1961 -71.4712V-1377H1959.4C1951.91 -1345.87 1918.24 -1302.87 1821.52 -1294.96C1698.16 -1284.87 1681.8 -1253.49 1666.22 -1223.6C1663.35 -1218.1 1660.51 -1212.64 1657.04 -1207.39C1634.67 -1173.55 1599.14 -1139.72 1474.13 -1166.59C1349.12 -1193.45 1226.75 -1202.41 1133.32 -1138.72C1058.58 -1087.77 986.231 -1082 959.629 -1082C933.027 -1082 860.676 -1087.77 785.935 -1138.72C692.509 -1202.41 570.134 -1193.45 445.127 -1166.59C320.12 -1139.72 284.592 -1173.55 262.222 -1207.39C258.746 -1212.64 255.905 -1218.1 253.037 -1223.6C237.456 -1253.49 221.1 -1284.87 97.7397 -1294.96C1.01764 -1302.87 -32.6524 -1345.87 -40.1379 -1377H-41.7417L-41.8711 -71.5Z" fill="#F2F0F4"/>
</g>
<defs>
<linearGradient id="paint0_linear_87_85" x1="-41.0001" y1="-10.8482" x2="2582.98" y2="493.961" gradientUnits="userSpaceOnUse">
<stop stop-color="#ED374D"/>
<stop offset="0.505208" stop-color="#FA793F"/>
<stop offset="1" stop-color="#F7F651"/>
</linearGradient>
</defs>
</svg>
