<svg width="1919" height="242" viewBox="0 0 1919 242" fill="none" xmlns="http://www.w3.org/2000/svg">
<mask id="mask0_57_230" style="mask-type:alpha" maskUnits="userSpaceOnUse" x="0" y="0" width="1919" height="242">
<rect width="1919" height="242" fill="#D9D9D9"/>
</mask>
<g mask="url(#mask0_57_230)">
<path d="M97.6108 29.0419C-19.2377 19.4886 -44.0636 -41.2807 -41.8705 -70.4713L-41.8705 -436L1960.87 -436V-70.4713C1963.06 -41.2807 1938.24 19.4886 1821.39 29.0419C1675.33 40.9834 1679.28 82.7791 1656.91 116.614C1634.54 150.448 1599.01 184.282 1474 157.414C1349 130.545 1226.62 121.589 1133.19 185.278C1058.45 236.228 986.102 242 959.5 242C932.898 242 860.547 236.228 785.806 185.278C692.38 121.589 570.005 130.545 444.998 157.414C319.991 184.282 284.463 150.448 262.093 116.614C239.724 82.7791 243.671 40.9834 97.6108 29.0419Z" fill="#1D1534"/>
</g>
</svg>
