<svg width="1920" height="308" viewBox="0 0 1920 308" fill="none" xmlns="http://www.w3.org/2000/svg">
<mask id="mask0_57_236" style="mask-type:alpha" maskUnits="userSpaceOnUse" x="0" y="0" width="1920" height="308">
<rect width="1920" height="308" fill="#D9D9D9"/>
</mask>
<g mask="url(#mask0_57_236)">
<path d="M-41.8711 1253.5C-44.0642 1282.69 -19.1088 1343.49 97.7397 1353.04C221.1 1363.13 237.456 1394.51 253.037 1424.4C255.905 1429.9 258.746 1435.36 262.222 1440.61C284.592 1474.45 320.12 1508.28 445.127 1481.41C570.134 1454.55 692.509 1445.59 785.935 1509.28C860.676 1560.23 933.027 1566 959.629 1566C986.231 1566 1058.58 1560.23 1133.32 1509.28C1226.75 1445.59 1349.12 1454.55 1474.13 1481.41C1599.14 1508.28 1634.67 1474.45 1657.04 1440.61C1660.51 1435.36 1663.35 1429.9 1666.22 1424.4C1681.8 1394.51 1698.16 1363.13 1821.52 1353.04C1938.37 1343.49 1963.19 1282.72 1961 1253.53V-52H1959.4C1951.91 -20.866 1918.24 22.134 1821.52 30.0419C1698.16 40.1276 1681.8 71.5088 1666.22 101.403C1663.35 106.904 1660.51 112.355 1657.04 117.614C1634.67 151.448 1599.14 185.282 1474.13 158.414C1349.12 131.545 1226.75 122.589 1133.32 186.278C1058.58 237.228 986.231 243 959.629 243C933.027 243 860.676 237.228 785.935 186.278C692.509 122.589 570.134 131.545 445.127 158.414C320.12 185.282 284.592 151.448 262.222 117.614C258.746 112.355 255.905 106.904 253.037 101.403C237.456 71.5088 221.1 40.1276 97.7397 30.0419C1.01764 22.134 -32.6524 -20.866 -40.1379 -52H-41.7417L-41.8711 1253.5Z" fill="#F2F0F4"/>
</g>
</svg>
